<?xml version="1.0" encoding="utf-8"?>
<!-- Generator: Adobe Illustrator 18.0.0, SVG Export Plug-In . SVG Version: 6.00 Build 0)  -->
<!DOCTYPE svg PUBLIC "-//W3C//DTD SVG 1.1//EN" "http://www.w3.org/Graphics/SVG/1.1/DTD/svg11.dtd">
<svg version="1.1" id="Layer_1" xmlns="http://www.w3.org/2000/svg" xmlns:xlink="http://www.w3.org/1999/xlink" x="0px" y="0px"
	 viewBox="0 0 100 79.9" enable-background="new 0 0 100 79.9" xml:space="preserve">
<g>
	<g>
		<g>
			<g>
				<path fill="#FFC32E" d="M25.1,28.7c-0.7,0-1.4-0.3-1.9-0.9l-7.8-10.7v9.8c0,1-0.8,1.8-1.9,1.8c-1,0-1.8-0.8-1.8-1.8V13.2
					c0-1.2,1.1-2.4,2.5-2.4c0.8,0,1.6,0.4,2.1,1L23.6,22v-9.4c0-1,0.8-1.8,1.9-1.8c1,0,1.8,0.8,1.8,1.8v13.8
					C27.4,27.7,26.4,28.7,25.1,28.7z"/>
			</g>
			<g>
				<path fill="#FFC32E" d="M58,28.9c-5.4,0-7.9-3-7.9-7.3v-8.9c0-1,0.8-1.9,1.9-1.9c1,0,1.9,0.8,1.9,1.9v8.7c0,2.5,1.4,4.1,4.1,4.1
					c2.7,0,4.1-1.7,4.1-4.1v-8.7c0-1,0.8-1.9,2-1.9c1,0,1.9,0.8,1.9,1.9v8.8C65.9,25.9,63.3,28.9,58,28.9z"/>
			</g>
			<g>
				<path fill="#FFC32E" d="M82.2,28.9c-2.6,0-5.7-0.8-6.7-2.3c-0.2-0.3-0.3-0.6-0.3-0.9c0-1,0.9-1.7,1.8-1.7c0.3,0,0.7,0.1,1,0.3
					c1.2,0.8,2.7,1.4,4.4,1.4c2.1,0,3.1-0.9,3.1-2c0-3.1-10.1-1-10.1-7.6c0-2.9,2.5-5.4,6.7-5.4c2,0,5.1,0.7,6,2
					c0.2,0.3,0.3,0.6,0.3,0.9c0,1-1,1.7-1.9,1.7c-0.3,0-0.6-0.1-0.9-0.3c-1.2-0.7-2.6-1-3.9-1c-1.6,0-2.5,0.7-2.5,1.8
					c0,2.8,10.1,0.9,10.1,7.5C89.3,26.5,87,28.9,82.2,28.9z"/>
			</g>
		</g>
		<g>
			<path fill="#FFC32E" d="M48.4,32.3c-0.5,0-1-0.2-1.3-0.6l-4.6-5.2c-0.3-0.3-0.5-0.8-0.4-1.3c0-0.5,0.3-0.9,0.6-1.2
				c1.3-1.1,2-2.7,2-4.4c0-3.2-2.6-5.9-5.9-5.9S33,16.3,33,19.5s2.6,5.9,5.9,5.9c1,0,1.7,0.8,1.7,1.7c0,1-0.8,1.7-1.7,1.7
				c-5.1,0-9.3-4.2-9.3-9.3s4.2-9.3,9.3-9.3s9.3,4.2,9.3,9.3c0,2.1-0.7,4.2-2,5.8l3.5,4c0.6,0.7,0.6,1.8-0.2,2.5
				C49.2,32.1,48.8,32.3,48.4,32.3z"/>
		</g>
		<g>
			<circle fill="#FFC32E" cx="51.2" cy="34" r="1.7"/>
		</g>
	</g>
	<g>
		<path fill="#FFC32E" d="M6.5,28.7c-1,0-1.7-0.8-1.7-1.7v-9.3c0-1,0.8-1.7,1.7-1.7s1.7,0.8,1.7,1.7V27C8.3,27.9,7.5,28.7,6.5,28.7z
			"/>
	</g>
	<g>
		<circle fill="#FFC32E" cx="6.5" cy="12.7" r="1.9"/>
	</g>
	<g>
		<path fill="#FFC32E" d="M71,28.7c-1,0-1.7-0.8-1.7-1.7v-9.3c0-1,0.8-1.7,1.7-1.7s1.7,0.8,1.7,1.7V27C72.7,27.9,71.9,28.7,71,28.7z
			"/>
	</g>
	<g>
		<circle fill="#FFC32E" cx="71" cy="12.7" r="1.9"/>
	</g>
	<g>
		<path fill="#FFC32E" d="M93.5,28.7c-1,0-1.7-0.8-1.7-1.7v-9.3c0-1,0.8-1.7,1.7-1.7s1.7,0.8,1.7,1.7V27
			C95.2,27.9,94.4,28.7,93.5,28.7z"/>
	</g>
	<g>
		<circle fill="#FFC32E" cx="93.5" cy="12.7" r="1.9"/>
	</g>
</g>
<g>
	<g>
		<g>
			<path fill="#FFC32E" d="M55.8,67.6c-0.4,0-0.8-0.2-1.1-0.5l-3.7-4.3c-0.2-0.3-0.4-0.7-0.3-1c0-0.4,0.2-0.7,0.5-1
				c1.1-0.9,1.7-2.2,1.7-3.6c0-2.6-2.1-4.8-4.8-4.8s-4.8,2.1-4.8,4.8s2.1,4.8,4.8,4.8c0.8,0,1.4,0.6,1.4,1.4c0,0.8-0.6,1.4-1.4,1.4
				c-4.2,0-7.6-3.4-7.6-7.6s3.4-7.6,7.6-7.6s7.6,3.4,7.6,7.6c0,1.7-0.6,3.4-1.7,4.8l2.9,3.3c0.5,0.6,0.5,1.5-0.1,2
				C56.5,67.5,56.2,67.6,55.8,67.6z"/>
		</g>
		<g>
			<circle fill="#FFC32E" cx="58.2" cy="69" r="1.4"/>
		</g>
	</g>
</g>
</svg>
